<?xml version="1.0" encoding="utf-8"?>
<!-- Generator: Adobe Illustrator 16.0.0, SVG Export Plug-In . SVG Version: 6.00 Build 0)  -->
<!DOCTYPE svg PUBLIC "-//W3C//DTD SVG 1.1//EN" "http://www.w3.org/Graphics/SVG/1.1/DTD/svg11.dtd">
<svg version="1.1" id="圖層_1" xmlns="http://www.w3.org/2000/svg" xmlns:xlink="http://www.w3.org/1999/xlink" x="0px" y="0px"
	 width="307.143px" height="110px" viewBox="0 0 307.143 110" enable-background="new 0 0 307.143 110" xml:space="preserve">
<path fill="#BEBEBE" d="M303.643,87.743c-108.087-20.805-176.738,6.015-296.782,0C77.214,110.298,234.971,82.918,303.643,87.743
	L303.643,87.743z M303.643,87.743"/>
<circle fill="#893448" cx="39.72" cy="45.907" r="27.408"/>
<rect x="22.854" y="29.952" fill="none" width="33.733" height="32.617"/>
<g>
	<path fill="#8E354A" d="M116.77,37.955c0.829-1.566,1.243-2.579,1.243-3.04c-0.368-0.369-0.69-0.691-0.967-0.967
		c-2.441,0.599-4.974,1.244-7.599,1.934c-2.579,0.737-5.02,1.428-7.322,2.119c-0.368,0-0.737-0.46-1.151-1.474
		c-0.46-0.921-0.829-1.612-1.151-2.119l0.23-0.414c2.855-0.276,6.079-0.875,9.578-1.796c5.343-1.105,8.382-1.842,9.026-2.118
		c0.415,0,0.967,0.322,1.704,0.967c1.151,0.875,2.026,1.52,2.625,1.934c0.645,0.276,0.967,0.599,0.967,0.967
		c0,0.322-0.276,0.691-0.783,1.06c-0.599,0.967-1.243,2.072-1.979,3.361v0.046c0.46,1.381,0.782,2.302,0.921,2.809
		c0,0.23-0.092,0.322-0.276,0.322c-1.796,0-3.914,0.184-6.401,0.553c0.829,0.184,1.428,0.276,1.796,0.368
		c0.23,0.138,0.369,0.415,0.369,0.829c-0.093,0.322-0.093,0.599-0.093,0.875v1.197c0,0.184,0,0.415,0.046,0.69
		c0.829-0.138,1.75-0.322,2.718-0.506c2.578-0.553,4.006-0.829,4.282-0.921c0.368,0.184,0.553,0.875,0.645,2.165
		c0.093,0.875,0.23,1.611,0.415,2.21c0,0.276-0.046,0.507-0.139,0.599c-0.46-0.046-1.013-0.138-1.611-0.276
		c-1.243,0.046-2.487,0.138-3.776,0.276c-0.553,0.046-1.013,0.092-1.474,0.138c0.322,0.829,0.69,1.704,1.151,2.625
		c2.349,3.408,4.421,5.342,6.217,5.849c0.276,0,0.69-1.197,1.243-3.592c0.276-1.382,0.553-2.717,0.829-3.915
		c0.368,0.092,0.553,0.276,0.553,0.645c0.322,1.842,0.599,3.73,0.783,5.665c0.368,2.026,0.645,4.052,0.828,5.987
		c0,0.69-0.276,1.059-0.736,1.059c-3.454-0.369-6.678-2.303-9.717-5.895c-1.52-1.704-2.993-4.053-4.421-7.046
		c-0.139-0.369-0.276-0.691-0.368-1.059c-0.461,0.092-0.875,0.138-1.244,0.184c-2.025,0.368-4.145,0.783-6.446,1.29
		c-0.829,0.276-1.474,0.46-1.935,0.552c-0.092,1.75-0.138,3.362-0.23,4.882c0.23-0.046,0.461-0.092,0.645-0.185
		c3.915-1.381,6.908-2.44,8.98-3.177c0.184,0,0.276,0.184,0.276,0.46c0,0.737-4.375,3.868-13.033,9.395
		c-0.276,0.276-0.645,0.414-1.059,0.414c-0.184,0-0.415-0.276-0.783-0.737c-0.276-0.552-0.737-1.289-1.382-2.164
		c-0.645-0.829-1.243-1.428-1.704-1.75c0.046-0.369,0.092-0.553,0.092-0.645c1.197-0.046,2.625-0.276,4.375-0.691V49.79
		c0-2.533,0-5.342,0.046-8.474c-0.184-1.704-0.46-2.763-0.875-3.177l0.369-0.369c1.335,0.737,2.763,1.244,4.329,1.612
		c0.276,0.092,0.461,0.322,0.461,0.691c-0.046,0.23-0.093,0.506-0.139,0.875c0.783-0.138,1.704-0.322,2.764-0.599
		c2.21-0.415,4.006-0.783,5.479-1.151c0.829-0.184,1.658-0.369,2.395-0.553C116.447,38.461,116.585,38.231,116.77,37.955z
		 M105.44,45.646c0,0.829,0,1.565,0,2.256c0.645-0.046,1.29-0.138,1.935-0.23c2.763-0.276,4.881-0.599,6.354-0.967
		c-0.69-1.934-1.151-3.27-1.427-4.053c-1.704,0.369-3.593,0.829-5.711,1.428c-0.46,0.23-0.829,0.415-1.105,0.506
		C105.486,44.955,105.44,45.277,105.44,45.646z"/>
	<path fill="#8E354A" d="M149.459,36.573c0,0.737-0.276,1.98-0.736,3.73c-0.553,1.658-0.968,2.855-1.29,3.5
		c-0.322,0.783-0.645,1.151-1.013,1.151c-0.322,0-1.014-0.553-2.072-1.658c-1.29-1.013-1.98-1.52-2.118-1.612v-0.322
		c0.184-0.046,0.736-0.323,1.703-0.875c0.646-0.323,1.29-0.737,1.935-1.29c0.829-0.599,1.565-1.197,2.257-1.796
		c0.46-0.46,0.828-0.829,1.15-1.105L149.459,36.573z M174.833,33.027c0.507,0.645,0.967,1.243,1.428,1.75
		c0.829,0.875,1.289,1.52,1.289,1.888c0,0.322-0.184,0.506-0.46,0.552c-1.474,0.185-2.901,0.461-4.283,0.875
		c-1.611,0.461-3.131,0.921-4.559,1.336l-0.415-0.323c1.474-0.921,2.625-1.842,3.5-2.809l-0.368-0.553
		c-6.125,0.691-12.065,1.75-17.821,3.132c0.46,0.645,1.335,1.52,2.624,2.671h0.875c0.691,0,1.428-0.092,2.257-0.276
		c2.44-0.23,4.329-0.506,5.618-0.829c1.382-0.184,3.178-0.506,5.296-0.921c2.165-0.46,3.362-0.691,3.592-0.783
		c0.322,0.184,0.507,0.783,0.553,1.796c0.093,0.737,0.185,1.335,0.368,1.796c0,0.276-0.046,0.415-0.138,0.507
		c-0.368-0.046-0.829-0.138-1.336-0.23c-1.013,0.046-2.072,0.138-3.177,0.276c-1.197,0.092-2.303,0.23-3.224,0.322l-1.243,3.362
		c0.782-0.184,1.565-0.369,2.348-0.599c0.875-0.322,1.521-0.507,1.889-0.507c0.185,0.23,0.645,0.507,1.382,0.829
		c0.368,0.276,0.875,0.507,1.427,0.691c0.461,0.138,0.691,0.276,0.691,0.46c-0.139,0.322-0.276,1.013-0.461,2.026
		c-0.184,1.658-0.322,3.592-0.414,5.848c-0.092,1.29-0.139,2.625-0.185,4.099c0,1.197-0.046,2.303-0.092,3.224
		c0,0.783-0.092,1.197-0.276,1.29c-0.414,0-0.829-0.138-1.243-0.415c-0.369-0.23-0.968-0.506-1.704-0.829
		c-0.645-0.276-1.428-0.69-2.395-1.243c-0.276-0.092-0.461-0.184-0.599-0.276c-1.105,0.092-2.44,0.322-3.961,0.645
		c-1.013,0.23-1.796,0.415-2.395,0.553c-0.46,0.184-0.736,0.23-0.921,0.23c-0.23,0-0.507-0.46-0.783-1.382
		c-0.322-0.737-0.645-1.289-0.921-1.75l0.139-0.322h1.197v-0.092c-0.185-1.934-0.322-3.638-0.461-5.066
		c-0.184-2.395-0.276-4.697-0.322-6.908c0.046-0.092,0.139-0.184,0.276-0.184c0.23,0.092,0.783,0.369,1.658,0.737
		c0.829,0,1.704-0.138,2.671-0.322V44.08c-0.921,0.23-1.889,0.46-2.855,0.691c-1.611,0.553-2.486,0.829-2.671,0.829
		c-0.23,0-0.368-0.322-0.461-0.967c-0.092-0.276-0.184-0.553-0.229-0.829c-0.322,0.553-0.875,1.29-1.658,2.256
		c-0.368,0.461-0.69,0.829-0.967,1.198c0.276,0.276,0.507,0.506,0.599,0.69c0,0.921-0.092,3.224-0.23,6.816
		c0,1.658-0.138,3.454-0.322,5.342c-0.368,2.671-0.737,4.052-1.06,4.052c-0.276,0-0.828-0.783-1.703-2.256
		c-0.968-1.197-1.474-1.98-1.566-2.441c0.046-0.322,0.23-1.243,0.599-2.717c0.23-1.335,0.461-2.763,0.645-4.283
		c0.093-0.645,0.139-1.335,0.185-1.98c-0.092,0.092-0.185,0.185-0.23,0.23c-2.026,2.21-4.145,3.454-6.4,3.73
		c-0.369,0-0.507-0.092-0.507-0.276c2.026-1.796,3.822-4.099,5.48-6.908c1.381-2.21,2.44-4.053,3.085-5.48
		c0.553-1.105,0.875-2.026,0.967-2.717c-0.46,0.092-0.829,0.184-1.197,0.276c-0.46,0-0.645-0.138-0.645-0.46
		c-0.23-1.197-0.553-1.98-0.967-2.349l0.322-0.553c3.27-0.046,6.631-0.46,10.131-1.29c0,0,0.046,0,0.093,0
		c-1.29-2.118-2.855-4.052-4.79-5.802l0.461-0.415c2.118,0.23,3.914,0.507,5.342,0.829c0.736,0.184,1.428,0.368,2.118,0.552
		c0.875,0.369,1.336,0.599,1.336,0.691c0,0.276-0.276,0.645-0.737,1.151c-0.553,0.783-0.967,1.428-1.335,1.888
		c-0.185,0.276-0.322,0.506-0.461,0.69c3.868-0.829,7.092-1.658,9.579-2.486c0.368-0.507,0.69-1.06,0.967-1.612h0.322
		C173.359,30.909,174.004,31.83,174.833,33.027z M168.018,59.737c0.185,0,0.322-0.46,0.414-1.381
		c-0.046-2.165-0.092-5.02-0.184-8.611c-0.23-0.276-0.415-0.461-0.507-0.599c-1.151,0.046-2.763,0.23-4.789,0.599
		c-0.829,0.276-1.474,0.414-1.935,0.506c-0.092,0.46-0.138,1.013-0.229,1.612v0.967c0.736-0.092,1.474-0.184,2.118-0.322
		c1.013-0.184,1.934-0.368,2.809-0.553c0.645-0.092,1.105-0.23,1.29-0.368l0.322,0.138v0.322c0,0.184,0.046,0.553,0.138,1.059
		c0.23,0.967,0.368,1.52,0.368,1.612c0,0.184-0.092,0.23-0.276,0.23c-1.197,0.092-2.532,0.23-4.052,0.415
		c-0.921,0.138-1.796,0.322-2.717,0.506v2.855c0.368-0.046,0.828-0.138,1.289-0.23c2.855-0.46,4.467-0.737,4.928-0.875
		c0.276,0,0.552,0.46,0.782,1.335c0.046,0.322,0.093,0.599,0.185,0.783H168.018z"/>
	<path fill="#8E354A" d="M190.301,48.915c-0.369-0.046-0.599-0.23-0.646-0.553c3.639-1.934,7.093-4.651,10.315-8.243
		c2.579-2.763,4.375-5.158,5.296-7.184c1.197-1.842,1.843-3.177,1.935-4.052c0.046-0.737,0.092-1.29,0.092-1.658l0.461-0.185
		c0.368,0.645,1.289,1.658,2.855,3.04c0.275,0.369,0.552,0.599,0.828,0.783c0.23,0.276,0.369,0.553,0.369,0.829
		c0,0.184-0.139,0.415-0.369,0.599c-0.229,0.276-0.553,0.599-0.967,0.967c2.763,2.072,5.48,3.868,8.197,5.342
		c3.546,2.026,7.092,3.638,10.684,4.789c0,0.461-0.138,0.645-0.368,0.645c-1.658,0.368-3.454,0.737-5.388,1.151
		c-1.197,0.322-2.165,0.552-2.901,0.737c-0.553,0.184-1.014,0.23-1.428,0.23c-0.415,0-1.06-0.691-1.935-2.165
		c-1.059-1.197-2.486-2.901-4.328-5.02c-1.566-1.335-3.04-2.44-4.421-3.361c-0.046,0.046-0.046,0.046-0.046,0.046
		c-0.691,0.921-1.428,1.842-2.257,2.855c-1.612,1.934-3.132,3.5-4.605,4.79c0.737,0.23,1.428,0.415,2.165,0.506
		c0.921,0.184,1.381,0.553,1.381,1.059c-0.092,0.369-0.276,1.151-0.553,2.349c-0.229,1.612-0.46,3.04-0.69,4.237
		c-0.23,1.566-0.553,2.855-1.013,3.96c-1.014,2.395-2.349,3.96-4.053,4.651c-1.105,0.552-2.303,0.829-3.639,0.921l-0.46-0.322
		c3.776-2.257,5.71-6.171,5.71-11.743c0-1.474-0.184-2.901-0.506-4.283C196.518,47.211,193.294,48.639,190.301,48.915z
		 M213.142,43.021c1.014,0.276,1.889,0.46,2.625,0.506c0.599,0.092,0.921,0.276,0.921,0.599c-0.276,0.369-0.553,1.934-0.875,4.697
		c-0.184,3.915-0.276,8.612-0.276,14.138c0,0.553-0.184,0.921-0.553,1.059c-0.736,0-1.289-0.138-1.657-0.322
		c-0.599-0.368-1.197-0.645-1.796-0.921c-1.197-0.645-1.98-1.013-2.303-1.151V61.21c0.645,0,1.197-0.368,1.657-1.105
		c0.646-1.428,1.014-5.572,1.014-12.48c0-3.131-0.322-4.743-0.921-4.835l0.322-0.368C211.853,42.698,212.451,42.882,213.142,43.021z
		"/>
	<path fill="#8E354A" d="M242.977,54.487c-0.368,1.197-0.736,2.302-1.104,3.27c-0.415,1.013-0.875,1.934-1.428,2.671
		c-0.185,0.415-0.415,0.599-0.783,0.599c-0.276,0-0.553-0.184-0.783-0.553c-0.276-0.276-0.645-0.737-1.013-1.381
		c-0.461-0.599-0.875-0.921-1.197-1.013v-0.415c1.013-0.138,1.98-0.599,2.993-1.427c1.382-0.829,2.395-1.52,3.039-1.98
		C242.793,54.349,242.885,54.395,242.977,54.487z M248.549,31.139c0.507,0.553,0.921,1.013,1.29,1.382
		c0.276,0.322,0.46,0.599,0.46,0.783c0,0.368-0.184,0.691-0.46,0.967c-0.276,0.369-0.737,0.875-1.29,1.566
		c-0.967,1.29-2.256,2.993-3.914,5.112c0.553,0,1.888-0.184,3.914-0.599c0.599-0.921,1.243-1.888,1.98-2.809
		c0.553-0.691,0.921-1.474,1.013-2.303l0.322-0.092c0.185,0.276,0.415,0.599,0.691,0.875c0.184,0.23,0.599,0.599,1.151,1.151
		c0.645,0.46,0.967,0.783,0.967,0.967c0,0.276-0.092,0.552-0.23,0.737c-1.657,1.888-2.993,3.5-4.099,4.789l0.046-0.046
		c0.968,0.737,1.98,1.796,3.086,3.178c0.322,0.552,0.553,0.967,0.736,1.289c0.23,0.46,0.369,0.829,0.369,1.059
		c0,0.276-0.185,0.553-0.507,0.737c-0.414,0.507-0.737,0.921-0.967,1.198c-0.415,0.46-0.829,0.921-1.197,1.381l-0.461-0.138
		c-0.046-0.645-0.092-1.52-0.185-2.579c-1.75,0.552-3.27,1.059-4.65,1.565c-2.026,0.875-3.454,1.428-4.237,1.658
		c-0.599,0.369-1.059,0.553-1.381,0.553c-0.276,0-0.553-0.599-0.783-1.842c-0.414-1.151-0.737-1.842-1.013-2.072
		c0-0.185,0.046-0.276,0.229-0.369c0.968,0,1.566-0.046,1.843-0.23c0.368,0,1.888-1.658,4.467-4.973
		c-0.276,0.092-0.553,0.184-0.829,0.23c-1.75,0.507-3.132,0.829-4.237,1.013c-0.229,0-0.46-0.645-0.736-1.98
		c-0.138-0.645-0.322-1.29-0.599-1.888c0-0.046,0-0.092,0.092-0.184c0.599,0,1.151,0,1.612-0.046
		c0.967-1.013,1.979-2.671,2.993-4.927c1.565-3.04,2.349-5.342,2.349-6.908c0.092-0.092,0.23-0.184,0.414-0.184
		C247.352,29.804,247.95,30.449,248.549,31.139z M248.457,53.474c-0.276,1.105-0.599,2.118-0.921,2.993
		c-0.368,0.967-0.783,1.796-1.243,2.441c-0.139,0.414-0.369,0.599-0.691,0.599c-0.276,0-0.506-0.138-0.736-0.507
		c-0.276-0.276-0.553-0.737-0.921-1.289c-0.461-0.553-0.829-0.875-1.105-0.967v-0.322c0.829-0.184,1.704-0.645,2.532-1.428
		c1.197-0.829,2.072-1.474,2.625-1.98C248.135,53.198,248.272,53.336,248.457,53.474z M250.529,45.323
		c-0.185-0.875-0.322-1.382-0.322-1.52c-2.026,2.395-3.224,3.868-3.592,4.421c0.368,0,1.796-0.322,4.282-1.059
		C250.806,46.521,250.667,45.922,250.529,45.323z M254.167,52.277c-0.368,1.197-0.736,2.256-1.151,3.177
		c-0.46,1.013-1.013,1.888-1.565,2.625c-0.185,0.369-0.414,0.553-0.736,0.553c-0.276,0-0.507-0.138-0.737-0.507
		c-0.23-0.276-0.553-0.69-0.921-1.289c-0.461-0.553-0.783-0.875-1.06-0.921v-0.368c0.921-0.184,1.889-0.691,2.855-1.52
		c1.382-0.875,2.349-1.566,2.947-2.119C253.891,52.046,254.029,52.185,254.167,52.277z M259.739,48.224
		c-1.428,1.842-3.178,2.855-5.25,3.04c-0.414,0-0.599-0.138-0.599-0.46c1.52-1.29,2.81-3.085,3.822-5.388
		c0.461-1.105,0.921-2.395,1.336-3.822c0.184-0.875,0.368-1.612,0.507-2.256c-0.323,0.184-0.553,0.276-0.737,0.368
		c-0.69,0.507-1.197,0.783-1.52,0.829c-0.553,0-0.875-0.322-0.967-1.013c-0.23-0.921-0.461-1.612-0.737-2.072
		c-0.23-0.415-0.46-0.737-0.69-0.967l0.23-0.507c0.184,0.138,0.46,0.184,0.782,0.184c3.362-0.552,6.217-1.243,8.565-1.98
		c1.197-0.276,2.487-0.691,3.822-1.244c0.921-0.506,1.52-0.783,1.75-0.783c0.092,0.092,0.507,0.507,1.243,1.29
		c0.875,0.875,1.843,1.704,2.855,2.533c0.645,0.46,1.014,0.783,1.014,1.059c0,0.23-0.185,0.46-0.553,0.691
		c-0.276,0.645-1.014,2.395-2.165,5.204c-0.645,1.566-1.197,2.855-1.657,3.869c-0.415,0.736-0.737,1.289-1.014,1.658
		c0.368,0.322,1.014,0.829,1.98,1.474c1.611,0.921,2.533,1.427,2.717,1.565c-0.092,0.323-0.736,2.072-1.98,5.204
		c-1.197,2.763-1.888,4.329-2.118,4.651c-0.368,0-1.104-0.046-2.21-0.138h-3.315c-0.369,0.092-1.612,0.23-3.822,0.415
		c-1.197,0.184-2.119,0.369-2.81,0.507c-0.368-0.276-1.013-1.612-2.026-3.96c-0.921-2.395-1.428-3.822-1.52-4.237
		c0.23-0.184,0.875-0.691,1.98-1.474c0.967-0.921,1.52-1.428,1.657-1.566c1.06,0,2.533-0.23,4.375-0.783
		c1.75-0.368,3.086-0.645,4.099-0.875c-0.414-0.415-0.875-0.921-1.382-1.566c-1.381-1.197-2.486-2.164-3.361-2.993
		C261.259,46.244,260.477,47.396,259.739,48.224z M263.239,53.382c-2.118,0.322-3.361,0.553-3.73,0.645
		c0.047,0.46,0.185,1.197,0.461,2.21c0.185,0.69,0.368,1.335,0.553,1.934c0.645,0,1.52-0.046,2.671-0.185
		c1.105-0.046,2.44-0.138,4.053-0.322c0.184-0.276,0.414-0.875,0.782-1.888c0.322-0.829,0.507-1.474,0.507-1.98
		c-0.185-0.322-0.322-0.553-0.507-0.737C266.601,53.06,264.989,53.198,263.239,53.382z M263.607,37.679
		c-0.276,0.092-0.506,0.184-0.736,0.276c0.184,0.184,0.414,0.322,0.645,0.46c0.599,0.23,0.921,0.552,0.921,0.921
		c0,0.322-0.46,1.335-1.382,3.04c-0.229,0.552-0.414,1.013-0.599,1.427c0.646,0.138,1.336,0.276,2.026,0.46
		c0.968,0.23,1.796,0.322,2.533,0.322c0.276,0,0.645-0.599,1.059-1.796c0.369-1.197,0.691-2.164,0.875-2.901
		c0.185-0.783,0.323-1.52,0.461-2.21c-0.507-0.553-1.013-1.013-1.52-1.382C267.476,36.297,266.049,36.757,263.607,37.679z"/>
</g>
<g>
	<path fill="#D3B68C" d="M37.173,38.569h5.393c-1.207-4.17-0.554-7.826-0.009-9.744h-5.376
		C37.726,30.743,38.381,34.399,37.173,38.569L37.173,38.569z M37.173,38.569"/>
	<path fill="#D3B68C" d="M36.026,32.354l-2.05-1.397c-1.865-1.274-4.302-1.346-6.24-0.183L26.76,31.36
		c-0.335,0.202-0.137,0.718,0.247,0.641c2.689-0.538,5.456,0.299,7.396,2.239l1.566,1.566
		C36.118,34.555,36.114,33.387,36.026,32.354L36.026,32.354z M36.026,32.354"/>
	<path fill="#D3B68C" d="M42.576,40.588h-5.415c0.546,1.982,1.236,5.84,0.01,10.098h5.396C41.34,46.428,42.03,42.57,42.576,40.588
		L42.576,40.588z M42.576,40.588"/>
	<path fill="#D3B68C" d="M42.555,52.705h-5.372c0.545,1.91,1.196,5.547-0.01,9.707h5.393C41.359,58.252,42.011,54.615,42.555,52.705
		L42.555,52.705z M42.555,52.705"/>
	<path fill="#D3B68C" d="M46.548,41.589h5.195c-1.065-3.479-0.519-6.538-0.006-8.254h-5.184
		C47.066,35.051,47.611,38.109,46.548,41.589L46.548,41.589z M46.548,41.589"/>
	<path fill="#D3B68C" d="M51.758,43.607h-5.226c0.518,1.776,1.098,5.001,0.014,8.563h5.198
		C50.66,48.608,51.241,45.384,51.758,43.607L51.758,43.607z M51.758,43.607"/>
	<path fill="#D3B68C" d="M51.735,54.189h-5.18c0.513,1.71,1.055,4.751-0.008,8.223h5.195C50.68,58.94,51.222,55.899,51.735,54.189
		L51.735,54.189z M51.735,54.189"/>
	<path fill="#D3B68C" d="M30.709,40.588H25.5c0.547,1.982,1.236,5.84,0.011,10.098h5.188C29.473,46.428,30.163,42.57,30.709,40.588
		L30.709,40.588z M30.709,40.588"/>
	<path fill="#D3B68C" d="M30.688,52.705h-5.165c0.544,1.91,1.195,5.547-0.011,9.707h5.186
		C29.492,58.252,30.143,54.615,30.688,52.705L30.688,52.705z M30.688,52.705"/>
</g>
</svg>
